<svg width="512" height="512" viewBox="0 0 512 512" fill="none" xmlns="http://www.w3.org/2000/svg">
  <path d="M256 0C397.385 0 512 114.615 512 256C512 397.385 397.385 512 256 512C114.615 512 0 397.385 0 256C0 114.615 114.615 0 256 0ZM256 64C149.961 64 64 149.961 64 256C64 362.039 149.961 448 256 448C362.039 448 448 362.039 448 256C448 149.961 362.039 64 256 64Z" fill="white"/>
  <path d="M256 128C256 198.692 198.692 256 128 256C198.692 256 256 313.308 256 384C256 313.308 313.308 256 384 256C313.308 256 256 198.692 256 128Z" fill="white"/>
</svg>